# xmcd
#
# Track frame offsets:
#	225
#	6431
#	23031
#	39625
#	47489
#	57863
#	62112
#	70782
#	75152
#	79833
#	84386
#	102798
#	110439
#	116930
#
# Disc length: 1736 seconds
#
# Revision: 1
# Processed by: cddbd v1.5.2PL0 Copyright (c) Steve Scherf et al.
# Submitted via: audiograbber 1.83.01
#
DISCID=aa06c50e
DTITLE=The Fellingham Family - Family in Harmony
DYEAR=1995
DGENRE=Country
TTITLE0=Foggy Mountain Breakdown
TTITLE1=Devil Went Down to Georgia
TTITLE2=Orange Blossom Special
TTITLE3=When I Fall In Love
TTITLE4=Sold
TTITLE5=Theme Time
TTITLE6=Crazy
TTITLE7=Down in Dixie
TTITLE8=El Cumbanchero
TTITLE9=Banjolina
TTITLE10=Young Love
TTITLE11=Black and White Rag
TTITLE12=Star Spangled Banner
TTITLE13=God Bless the USA
EXTD=
EXTT0=
EXTT1=
EXTT2=
EXTT3=
EXTT4=
EXTT5=
EXTT6=
EXTT7=
EXTT8=
EXTT9=
EXTT10=
EXTT11=
EXTT12=
EXTT13=
PLAYORDER=
